<svg xmlns="http://www.w3.org/2000/svg" viewBox="0 0 100 100" role="img"><title>release — original stage illustration</title><defs><linearGradient id="metal" x1="0" y1="0" x2="1" y2="1"><stop stop-color="#fcf7df"/><stop offset=".3" stop-color="#c9cfc8"/><stop offset=".52" stop-color="#ebead7"/><stop offset="1" stop-color="#6e807c"/></linearGradient><linearGradient id="paper" x1="0" y1="0" x2=".6" y2="1"><stop stop-color="#fffbee"/><stop offset="1" stop-color="#d4c49d"/></linearGradient><linearGradient id="ink" x1="0" y1="0" x2="1" y2="1"><stop stop-color="#61716e"/><stop offset=".5" stop-color="#283b3b"/><stop offset="1" stop-color="#142529"/></linearGradient><linearGradient id="brass" x1="0" y1="0" x2="1" y2="1"><stop stop-color="#f8e7aa"/><stop offset=".5" stop-color="#bc9550"/><stop offset="1" stop-color="#745a2b"/></linearGradient><filter id="shadow" x="-40%" y="-40%" width="190%" height="200%"><feDropShadow dx="1" dy="3" stdDeviation="2" flood-color="#2f2518" flood-opacity=".32"/></filter></defs><ellipse cx="51" cy="87" rx="36" ry="6" fill="#463621" opacity=".15"/><g filter="url(#shadow)"><path d="M16 62q34-18 68 0v16q-33 17-68 0z" fill="url(#metal)" stroke="#5b7067"/><ellipse cx="50" cy="62" rx="34" ry="11" fill="#9eada1" stroke="#718477"/><g transform="rotate(-16 51 44)"><circle cx="50" cy="41" r="31" fill="url(#metal)" stroke="#586b61" stroke-width="2"/><circle cx="50" cy="41" r="25" fill="none" stroke="#8b9d8d"/><circle cx="50" cy="41" r="21" fill="#b8c2ac" opacity=".6"/><rect x="27" y="30" width="46" height="22" rx="2" fill="url(#paper)" stroke="#a08b60"/><path d="M33 35h33M33 41h22M33 47h31" stroke="#867753" stroke-width="2"/></g><path d="M69 61h17v27H69z" fill="#ddca90" stroke="#927546"/><path d="m73 71 3 4 6-8" fill="none" stroke="#3f6a51" stroke-width="3"/><path d="M73 81h9" stroke="#927546"/></g></svg>